<svg preserveAspectRatio="none" width="100%" height="100%" overflow="visible" style="display: block;" viewBox="0 0 341 368" fill="none" xmlns="http://www.w3.org/2000/svg">
<g id="Group">
<g id="Group_2">
<path id="Vector" d="M151.972 366.179C145.668 368.333 138.464 364.063 135.958 356.66L96.959 242.398L119.747 234.603L158.785 349.022C161.291 356.347 158.237 364.024 151.972 366.179Z" fill="var(--fill-0, black)"/>
<path id="Vector_2" d="M148.565 367.589C146.725 367.589 144.846 367.158 143.044 366.257C139.403 364.455 136.506 361.086 135.096 356.934L96.0973 242.673C95.9407 242.242 96.1757 241.732 96.6455 241.576L119.434 233.781C119.669 233.702 119.904 233.702 120.1 233.82C120.295 233.937 120.452 234.094 120.53 234.329L159.568 348.748C162.191 356.503 158.902 364.69 152.207 367.001C151.071 367.393 149.818 367.589 148.565 367.589ZM98.0551 242.947L136.78 356.386C138.033 360.107 140.617 363.162 143.828 364.729C146.412 365.983 149.192 366.218 151.698 365.356C157.493 363.358 160.312 356.151 157.963 349.296L119.199 235.7L98.0551 242.947Z" fill="var(--fill-0, black)"/>
</g>
<path id="Vector_3" d="M115.714 135.971L41.9843 188.577L13.2835 218.386L2.00679 238.324L1.96763 238.481C-0.264217 241.928 1.02791 249.88 5.21752 257.988C9.32882 265.979 15.1238 271.541 19.1959 271.855L19.0785 271.933L40.7313 274.283L81.257 267.82L167.281 237.032L274.214 255.364L274.958 255.403C248.097 250.389 211.84 214.469 185.488 163.665C159.176 112.899 150.797 62.7209 162.347 37.9648H162.308L116.301 134.717L115.714 135.971Z" fill="var(--fill-0, #B9FF66)"/>
<g id="Group_3">
<path id="Vector_4" d="M292.729 253.192C319.157 239.462 314.046 177.218 281.315 114.166C248.584 51.1137 200.626 11.1302 174.199 24.8601C147.771 38.5901 152.882 100.834 185.613 163.886C218.344 226.938 266.302 266.922 292.729 253.192Z" fill="var(--fill-0, white)"/>
<path id="Vector_5" d="M281.106 256.774C269.594 256.774 255.733 250.35 240.815 237.855C220.494 220.854 200.564 194.649 184.706 164.017C160.704 117.639 150.797 70.0852 159.49 42.8614C162.387 33.7737 167.243 27.428 173.86 24.0201C187.016 17.2827 205.536 23.0017 226.054 40.1586C246.375 57.1588 266.305 83.3642 282.163 113.996C306.205 160.374 316.111 207.928 307.379 235.152C304.482 244.239 299.626 250.585 293.009 253.993C289.446 255.873 285.452 256.774 281.106 256.774ZM185.841 23.0017C181.808 23.0017 178.049 23.8243 174.682 25.587C168.456 28.7598 163.914 34.7921 161.174 43.4489C152.599 70.281 162.466 117.325 186.272 163.312C218.693 225.868 266.227 265.901 292.265 252.544C298.491 249.371 303.033 243.338 305.774 234.682C314.349 207.85 304.482 160.805 280.675 114.818C252.444 60.3708 212.819 23.0017 185.841 23.0017Z" fill="var(--fill-0, black)"/>
</g>
<path id="Vector_6" d="M281.106 256.774C269.594 256.774 255.733 250.35 240.815 237.855C220.493 220.854 200.563 194.649 184.706 164.017C160.703 117.639 150.797 70.0852 159.49 42.8614C162.387 33.7737 167.242 27.428 173.86 24.0201C182.67 19.4763 194.181 20.6122 207.142 27.2713C219.554 33.6562 232.984 44.9766 246.062 59.9791C246.375 60.3316 246.336 60.88 245.984 61.1934C245.631 61.5067 245.083 61.4676 244.77 61.115C218.222 30.64 191.362 17.0085 174.682 25.587C168.456 28.7598 163.914 34.7921 161.173 43.4489C152.598 70.281 162.465 117.325 186.272 163.312C214.464 217.721 254.128 255.129 281.067 255.129C285.1 255.129 288.858 254.306 292.226 252.544C298.452 249.371 302.994 243.338 305.734 234.682C314.309 207.85 304.442 160.805 280.636 114.818C273.549 101.109 265.561 88.2214 256.986 76.5092C256.712 76.1175 256.79 75.5691 257.182 75.2949C257.573 75.0207 258.122 75.0991 258.396 75.4908C267.049 87.2813 275.037 100.247 282.202 114.035C306.204 160.374 316.111 207.928 307.379 235.152C304.481 244.239 299.626 250.585 293.009 253.993C289.446 255.873 285.452 256.774 281.106 256.774Z" fill="var(--fill-0, black)"/>
<g id="Group_4">
<path id="Vector_7" d="M232.766 172.928C238.889 169.747 237.711 155.339 230.136 140.748C222.561 126.156 211.458 116.905 205.335 120.086C199.213 123.267 200.391 137.674 207.966 152.266C215.54 166.858 226.644 176.108 232.766 172.928Z" fill="var(--fill-0, #B9FF66)"/>
<path id="Vector_8" d="M230.087 174.437C223.352 174.437 213.955 165.741 207.181 152.619C201.543 141.729 199.233 130.526 201.308 124.063C202.052 121.791 203.266 120.185 204.949 119.323C211.606 115.915 223 125.199 230.909 140.436C236.548 151.326 238.858 162.529 236.783 168.992C236.039 171.264 234.825 172.87 233.141 173.732C232.201 174.202 231.183 174.437 230.087 174.437ZM208.004 120.303C207.181 120.303 206.398 120.459 205.733 120.812C204.44 121.478 203.501 122.731 202.913 124.572C200.995 130.605 203.227 141.337 208.669 151.835C215.874 165.741 226.72 175.103 232.319 172.204C233.611 171.538 234.551 170.285 235.138 168.444C237.057 162.372 234.786 151.679 229.382 141.181C223.039 128.999 213.955 120.303 208.004 120.303Z" fill="var(--fill-0, #B9FF66)"/>
</g>
<path id="Vector_9" d="M275.155 242.163C265.053 242.163 252.914 236.523 239.837 225.594C222.06 210.709 204.597 187.755 190.736 160.962C169.71 120.381 161.056 78.7418 168.652 54.8867C171.197 46.8958 175.465 41.3335 181.3 38.3174C194.691 31.4625 214.386 39.375 235.373 60.0181C235.725 60.3706 235.725 60.8799 235.373 61.2324C235.021 61.5849 234.512 61.5849 234.159 61.2324C213.72 41.1377 194.73 33.3035 182.083 39.845C176.679 42.6262 172.725 47.8359 170.297 55.3959C162.818 78.8202 171.432 119.95 192.263 160.178C216.892 207.771 251.544 240.44 275.115 240.44C278.639 240.44 281.889 239.695 284.865 238.207C290.269 235.426 294.223 230.216 296.651 222.656C304.13 199.232 295.515 158.102 274.685 117.874C268.381 105.731 261.333 94.3319 253.737 84.0299C253.463 83.6382 253.541 83.0898 253.932 82.8156C254.324 82.5414 254.872 82.6198 255.146 83.0115C262.821 93.431 269.908 104.869 276.251 117.09C297.277 157.671 305.931 199.31 298.335 223.165C295.789 231.156 291.522 236.718 285.687 239.735C282.477 241.341 278.953 242.163 275.155 242.163Z" fill="var(--fill-0, black)"/>
<path id="Vector_10" d="M40.7713 275.106C40.7321 275.106 40.6929 275.106 40.6929 275.106L19.0401 272.756C18.9226 272.756 18.8052 272.717 18.6877 272.638C14.224 271.933 8.58565 266.293 4.47435 258.38C0.0889648 250.037 -1.20316 241.889 1.18531 238.05L1.22447 237.933L12.5012 217.956C12.5403 217.877 12.5795 217.838 12.6186 217.799L41.3194 187.99C41.3586 187.951 41.3977 187.912 41.4369 187.872L114.97 135.383L161.487 37.5734C161.604 37.3775 161.761 37.2208 161.996 37.1425C162.231 37.0641 162.466 37.0641 162.662 37.1817C163.092 37.3775 163.288 37.8867 163.092 38.3176C151.306 63.5829 160.625 113.8 186.233 163.234C211.88 212.746 247.628 249.41 275.155 254.463C275.585 254.541 275.898 254.933 275.859 255.403C275.82 255.834 275.429 256.147 274.998 256.187L274.254 256.147C274.215 256.147 274.176 256.147 274.136 256.147L167.399 237.855L81.571 268.565C81.5319 268.565 81.4535 268.604 81.4144 268.604L40.8887 275.067C40.8496 275.106 40.8104 275.106 40.7713 275.106ZM19.6666 271.111L40.7713 273.383L81.1012 266.919L167.086 236.17C167.243 236.131 167.36 236.092 167.517 236.131L263.604 252.583C237.644 241.184 207.298 207.536 184.784 164.056C162.427 120.89 152.442 77.0577 157.924 49.3638L116.497 136.323C116.419 136.441 116.341 136.558 116.223 136.637L42.5724 189.243L13.9891 218.896L2.71237 238.873C2.71237 238.912 2.67321 238.951 2.67321 238.951C0.637138 242.124 2.00757 249.958 5.96225 257.597C9.83862 265.078 15.4378 270.719 19.275 270.993C19.4317 270.993 19.5491 271.032 19.6666 271.111Z" fill="var(--fill-0, black)"/>
<g id="Group_5">
<path id="Vector_11" d="M115.83 135.657L162.308 37.9258H162.347C150.796 62.6818 159.214 112.86 185.487 163.625C211.839 214.469 248.097 250.389 275.035 255.325L274.291 255.286L167.515 236.993L165.048 236.562C152.636 234.368 136.074 218.23 124.209 195.197C112.032 171.577 109.879 148.035 115.282 136.833L115.83 135.657Z" fill="var(--fill-0, white)"/>
<path id="Vector_12" d="M275.036 256.187C275.036 256.187 274.997 256.187 275.036 256.187L274.253 256.147C274.214 256.147 274.174 256.147 274.135 256.147L167.359 237.854L164.892 237.424C151.775 235.113 135.134 218.308 123.427 195.628C110.153 169.854 109.487 146.899 114.499 136.48L115.087 135.305L161.564 37.6124C161.681 37.4166 161.838 37.2599 162.073 37.1816C162.308 37.1032 162.543 37.1032 162.739 37.2207C163.169 37.4166 163.365 37.9258 163.169 38.3567C151.384 63.622 160.702 113.839 186.31 163.273C211.957 212.785 247.705 249.449 275.232 254.502C275.662 254.58 275.976 254.972 275.936 255.442C275.819 255.834 275.467 256.187 275.036 256.187ZM157.844 49.3637L116.614 136.049L116.026 137.224C111.054 147.565 112.502 170.676 124.954 194.806C136.426 217.055 152.597 233.507 165.205 235.7L167.672 236.131L263.563 252.583C237.603 241.184 207.258 207.536 184.744 164.056C162.386 120.89 152.402 77.0576 157.844 49.3637Z" fill="var(--fill-0, black)"/>
</g>
<path id="Vector_13" d="M39.5961 274.989C39.5569 274.989 39.5177 274.989 39.5177 274.989L19.0004 272.795C18.8829 272.795 18.7655 272.756 18.648 272.677C14.1843 271.972 8.54595 266.332 4.43465 258.419C0.0884174 250.037 -1.20371 241.889 1.18476 238.05L1.22392 237.933L12.5006 217.956C12.7356 217.525 13.2446 217.407 13.6753 217.642C14.106 217.877 14.2235 218.387 13.9885 218.817L2.71182 238.873C2.71182 238.912 2.67266 238.951 2.67266 238.951C0.636591 242.124 2.00702 249.958 5.9617 257.597C9.83807 265.078 15.4373 270.719 19.2745 270.993C19.3919 270.993 19.5486 271.032 19.6269 271.111L39.6744 273.265C40.1442 273.304 40.4966 273.735 40.4183 274.205C40.3792 274.636 40.0268 274.989 39.5961 274.989Z" fill="var(--fill-0, black)"/>
<g id="Group_6">
<path id="Vector_14" d="M40.9662 274.127C34.3098 273.657 24.9909 264.217 18.217 251.173C11.0516 237.345 9.36792 223.048 13.7533 217.956L2.04589 238.325L1.96758 238.481C-0.264266 241.928 1.02786 249.88 5.21747 257.988C9.32877 265.979 15.1237 271.542 19.1959 271.855L19.0784 271.933L40.9662 274.127Z" fill="var(--fill-0, white)"/>
<path id="Vector_15" d="M40.9665 274.989C40.9273 274.989 40.9273 274.989 40.8882 274.989C40.7316 274.989 40.5358 274.949 40.3792 274.949L19.0004 272.795C18.8829 272.795 18.7655 272.756 18.648 272.678C14.1843 271.972 8.54595 266.332 4.43465 258.419C0.0884174 250.037 -1.20371 241.889 1.18476 238.05L1.22392 237.933L11.5217 219.993C11.9133 218.974 12.4223 218.073 13.0488 217.329C13.3229 216.976 13.8319 216.937 14.1843 217.172C14.5367 217.446 14.6542 217.916 14.4192 218.308L12.9705 220.776C10.6603 227.004 12.9313 239.226 18.8829 250.663C25.3435 263.159 34.1535 272.286 40.4575 273.108L40.9273 273.148C41.3972 273.187 41.7496 273.618 41.7104 274.088C41.7496 274.636 41.3972 274.989 40.9665 274.989ZM19.6269 271.111L34.5842 272.638C28.8284 268.956 22.4852 261.357 17.4342 251.564C12.5398 242.124 10.1122 232.331 10.5037 225.281L2.71182 238.873C2.71182 238.912 2.67266 238.951 2.67266 238.951C0.636591 242.124 2.00702 249.958 5.9617 257.597C9.83807 265.078 15.4373 270.719 19.2745 270.993C19.3919 270.993 19.5486 271.032 19.6269 271.111Z" fill="var(--fill-0, black)"/>
</g>
<g id="Group_7">
<path id="Vector_16" d="M79.8079 267.977L81.5307 267.624C72.2118 269.583 57.4894 255.481 47.1133 235.465C36.5022 215.018 34.5053 194.61 42.0231 188.577L41.0442 189.557L13.8313 217.838C9.36761 222.852 11.0121 237.228 18.2167 251.133C25.1472 264.53 34.9751 274.087 41.6707 274.048L79.8079 267.977Z" fill="var(--fill-0, black)"/>
<path id="Vector_17" d="M41.6323 274.949C34.5061 274.949 24.5998 265.353 17.4344 251.564C10.1515 237.463 8.31122 222.734 13.1665 217.29L39.8703 189.557C40.3402 188.93 40.8884 188.382 41.4757 187.911C41.8281 187.637 42.3371 187.676 42.6504 187.99C42.9636 188.342 42.9636 188.852 42.6504 189.165L41.1233 190.771C35.6807 198.057 38.3824 216.702 47.8972 235.073C58.1558 254.894 72.4866 268.486 81.2574 266.841L81.3749 266.802C81.8448 266.724 82.2755 266.998 82.3929 267.468C82.4712 267.938 82.1971 268.369 81.7273 268.486C81.6881 268.486 81.649 268.486 81.6098 268.525L80.0045 268.839H79.9653L41.8281 274.91C41.7498 274.91 41.6715 274.949 41.6323 274.949ZM37.5993 194.414L14.4586 218.465C10.1515 223.322 12.1093 237.502 19.0006 250.781C25.7353 263.786 35.25 273.187 41.6323 273.226L75.3058 267.859C66.2218 264.647 55.0234 252.544 46.3701 235.896C38.1475 220.032 34.9759 203.893 37.5993 194.414Z" fill="var(--fill-0, black)"/>
</g>
<g id="Group_8">
<path id="Vector_18" d="M205.341 120.067C199.194 123.201 200.094 137.733 207.925 152.227C221.042 176.474 231.497 173.614 232.711 173.183C232.75 173.183 232.75 173.222 232.711 173.222L210.196 191.359C203.579 182.075 197.275 171.734 191.48 160.57C185.959 149.877 181.3 139.222 177.619 128.881L205.341 120.067Z" fill="var(--fill-0, black)"/>
<path id="Vector_19" d="M210.196 192.22C210.157 192.22 210.118 192.22 210.079 192.22C209.844 192.181 209.648 192.064 209.491 191.868C202.717 182.349 196.413 171.93 190.736 161.001C185.293 150.503 180.595 139.81 176.836 129.233C176.758 128.998 176.758 128.763 176.875 128.567C176.992 128.372 177.149 128.215 177.384 128.137L205.106 119.323C205.537 119.206 206.006 119.401 206.163 119.832C206.32 120.263 206.163 120.733 205.772 120.929C204.44 121.595 203.461 122.927 202.874 124.885C200.955 131.035 203.305 141.925 208.747 151.913C221.551 175.573 231.418 172.87 232.475 172.478C232.867 172.321 233.337 172.517 233.533 172.87C233.728 173.222 233.65 173.732 233.337 174.006L210.744 192.024C210.588 192.142 210.392 192.22 210.196 192.22ZM178.754 129.429C182.474 139.653 187.016 149.994 192.263 160.178C197.745 170.755 203.853 180.822 210.392 190.105L229.93 174.358C225.467 174.163 217.048 170.833 207.181 152.618C201.464 142.081 199.115 130.957 201.19 124.259C201.464 123.397 201.778 122.653 202.169 121.948L178.754 129.429Z" fill="var(--fill-0, black)"/>
</g>
</g>
</svg>
