<svg preserveAspectRatio="none" width="100%" height="100%" overflow="visible" style="display: block;" viewBox="0 0 99 99" fill="none" xmlns="http://www.w3.org/2000/svg">
<g id="Group">
<path id="Vector" d="M66.3055 81.5974C84.2056 72.1937 91.1289 50.1159 81.7692 32.2852C72.4095 14.4546 50.3111 7.62316 32.411 17.0269C14.5109 26.4306 7.58759 48.5084 16.9473 66.339C26.307 84.1697 48.4054 91.0011 66.3055 81.5974Z" fill="var(--fill-0, black)"/>
<g id="Group_2">
<path id="Vector_2" d="M32.6863 41.2352C34.4092 38.8849 36.9543 37.4356 39.8517 37.1223C42.0444 36.8872 44.0805 37.3573 45.9991 38.5324C46.978 39.12 47.8394 39.8642 48.6617 40.7652C49.249 39.7075 49.9538 38.7674 50.776 37.984C52.3814 36.4172 54.3 35.5162 56.4536 35.2812C59.351 34.9678 62.1702 35.8296 64.3629 37.749C66.5165 39.6292 67.8869 42.3712 68.2393 45.4657C68.5917 48.6385 67.7303 51.6939 65.5376 55.0626C63.5798 58.0787 60.604 61.2124 57.1584 64.8945C55.9837 66.1479 54.6524 67.5581 53.282 69.0466C52.9296 69.4383 52.4206 69.7125 51.8724 69.7517C51.3242 69.83 50.8152 69.6733 50.3453 69.36C48.6617 68.1848 47.0563 67.0881 45.6467 66.1479C41.4963 63.3276 37.894 60.899 35.3097 58.3921C32.4122 55.611 30.9243 52.7906 30.5719 49.6178C30.2587 46.5233 31.0027 43.5463 32.6863 41.2352Z" fill="var(--fill-0, white)"/>
</g>
</g>
</svg>
